<?xml version="1.0" standalone="no"?>
<!DOCTYPE svg PUBLIC "-//W3C//DTD SVG 20010904//EN"
 "http://www.w3.org/TR/2001/REC-SVG-20010904/DTD/svg10.dtd">
<svg version="1.0" xmlns="http://www.w3.org/2000/svg"
 width="700.000000pt" height="700.000000pt" viewBox="0 0 700.000000 700.000000"
 preserveAspectRatio="xMidYMid meet">
<metadata>
Created by potrace 1.11, written by Peter Selinger 2001-2013
</metadata>
<g transform="translate(0.000000,700.000000) scale(0.100000,-0.100000)"
fill="#000000" stroke="none">
<path d="M3278 6995 c-1 -1 -41 -5 -88 -9 -87 -7 -105 -9 -225 -27 -116 -18
-123 -19 -192 -35 -184 -42 -248 -59 -369 -99 -664 -222 -1235 -625 -1668
-1179 -158 -201 -328 -483 -421 -696 -25 -58 -50 -114 -55 -125 -45 -93 -150
-427 -176 -560 -2 -11 -10 -54 -19 -95 -22 -115 -30 -160 -41 -255 -26 -230
-26 -667 1 -826 2 -13 6 -46 9 -74 9 -78 23 -156 51 -285 79 -365 269 -819
474 -1130 213 -323 469 -603 771 -845 92 -74 370 -265 386 -265 4 0 15 -6 23
-14 9 -7 82 -47 162 -89 355 -181 735 -301 1115 -353 22 -3 53 -7 69 -9 181
-26 672 -26 837 0 13 2 57 9 98 15 164 25 182 29 295 57 55 14 107 26 115 28
173 39 564 198 762 311 34 20 79 45 98 56 149 85 431 295 571 425 87 81 240
239 284 293 21 25 40 47 44 50 4 3 38 45 76 94 l68 88 -12 37 c-21 58 -92 243
-106 276 -7 17 -25 59 -40 95 -102 245 -247 516 -362 678 -187 263 -393 424
-588 458 -49 9 -574 8 -665 0 -106 -10 -130 -14 -237 -41 -214 -54 -517 -199
-868 -415 -38 -23 -106 -65 -150 -92 -44 -27 -123 -76 -175 -108 -293 -183
-598 -352 -745 -413 -164 -67 -520 -181 -665 -212 -8 -2 -60 -15 -115 -29 -55
-13 -111 -27 -125 -30 -14 -2 -68 -14 -120 -26 -52 -12 -108 -24 -125 -26 -16
-3 -43 -9 -58 -14 -15 -5 -25 -5 -23 -1 3 5 27 14 53 20 188 48 565 232 951
466 124 75 390 270 492 361 19 17 62 55 95 84 62 54 315 307 396 395 154 168
363 439 471 612 100 161 202 398 200 467 0 16 2 35 6 40 3 6 8 18 9 26 8 48
54 416 58 475 4 39 9 81 12 95 9 45 12 493 3 568 -29 238 -71 395 -147 547
-115 233 -360 483 -623 637 -86 50 -232 118 -254 118 -8 0 -18 5 -22 12 -4 6
-3 9 2 6 5 -4 27 -9 49 -12 68 -11 333 -66 470 -97 72 -17 137 -32 146 -34 9
-2 53 -13 96 -25 44 -12 86 -22 94 -24 47 -8 275 -83 387 -127 180 -71 356
-182 557 -349 47 -39 256 -249 309 -310 210 -244 433 -592 618 -970 62 -126
138 -289 138 -295 0 -2 13 -32 29 -67 16 -35 39 -88 51 -118 12 -30 28 -68 36
-85 7 -16 23 -55 35 -85 71 -183 136 -352 180 -470 27 -74 56 -151 64 -170 12
-29 123 -334 340 -936 18 -49 45 -119 59 -155 14 -36 26 -69 26 -73 0 -5 7
-22 15 -39 8 -18 25 -61 39 -97 l24 -65 46 98 c25 55 46 101 46 103 0 2 11 27
24 56 41 92 120 325 152 448 15 63 18 74 29 123 14 60 55 299 60 352 4 33 9
71 11 85 9 47 11 525 4 605 -16 167 -22 220 -25 225 -2 3 -6 30 -10 60 -9 73
-68 337 -95 422 -11 37 -21 70 -21 73 0 11 -74 208 -116 310 -244 583 -666
1109 -1193 1485 -186 133 -439 278 -620 355 -36 15 -80 34 -98 42 -122 53
-422 144 -587 178 -44 9 -89 19 -100 21 -11 2 -38 6 -60 9 -22 3 -51 7 -65 10
-13 2 -52 7 -86 11 -33 3 -74 8 -90 10 -32 5 -540 14 -546 9z"/>
<path d="M4488 5128 c-22 -18 -35 -61 -53 -178 -3 -22 -13 -115 -21 -195 -3
-32 -14 -218 -19 -325 -6 -109 -6 -622 0 -665 9 -65 14 -75 43 -76 15 -1 38
-2 52 -4 76 -8 283 -18 405 -19 162 -2 263 11 278 36 13 20 -48 231 -154 530
-89 253 -144 387 -234 573 -124 256 -232 374 -297 323z"/>
</g>
</svg>
